<svg xmlns="http://www.w3.org/2000/svg" viewBox="0 0 264.6 80.35"><defs><style>.cls-1{fill:#fff}</style></defs><g id="Layer_2" data-name="Layer 2"><g id="Layer_1-2" data-name="Layer 1"><g id="Bang_hieu_2" data-name="Bang hieu 2"><path class="cls-1" d="M41 78.06a.67.67 0 0 1-.22-.51v-9.79a.67.67 0 0 1 .22-.52.7.7 0 0 1 .54-.22h6.53a.73.73 0 0 1 .51.2.65.65 0 0 1 .21.49.63.63 0 0 1-.21.48.72.72 0 0 1-.51.19h-5.78v3.54h5.17a.71.71 0 0 1 .52.2.67.67 0 0 1 0 1 .79.79 0 0 1-.52.19h-5.17v4.27a.68.68 0 0 1-.23.51.76.76 0 0 1-.54.21.73.73 0 0 1-.52-.24zm12.19-.24a3.65 3.65 0 0 1-1.5-1.49 4.91 4.91 0 0 1 0-4.44 3.65 3.65 0 0 1 1.5-1.49 4.73 4.73 0 0 1 2.27-.53 4.67 4.67 0 0 1 2.25.53 3.73 3.73 0 0 1 1.51 1.49 4.83 4.83 0 0 1 0 4.44 3.73 3.73 0 0 1-1.51 1.49 4.67 4.67 0 0 1-2.25.53 4.73 4.73 0 0 1-2.27-.53zm3.59-1.1a2.52 2.52 0 0 0 1-1 3 3 0 0 0 .41-1.67 3 3 0 0 0-.41-1.64 2.45 2.45 0 0 0-1-1 3.17 3.17 0 0 0-1.32-.29 3.23 3.23 0 0 0-1.34.29 2.43 2.43 0 0 0-1 1 3 3 0 0 0-.4 1.64 3.13 3.13 0 0 0 .4 1.67 2.49 2.49 0 0 0 1 1 3.09 3.09 0 0 0 1.34.3 3 3 0 0 0 1.32-.3zm8.31 1.1a3.73 3.73 0 0 1-1.51-1.49 4.91 4.91 0 0 1 0-4.44 3.73 3.73 0 0 1 1.51-1.49 5.08 5.08 0 0 1 4.52 0 3.73 3.73 0 0 1 1.51 1.49 4.83 4.83 0 0 1 0 4.44 3.73 3.73 0 0 1-1.51 1.49 5.08 5.08 0 0 1-4.52 0zm3.58-1.1a2.6 2.6 0 0 0 1-1 3.13 3.13 0 0 0 .41-1.67 3 3 0 0 0-.41-1.64 2.53 2.53 0 0 0-1-1 3.17 3.17 0 0 0-2.65 0 2.37 2.37 0 0 0-1 1 3 3 0 0 0-.41 1.64 3.13 3.13 0 0 0 .39 1.71 2.43 2.43 0 0 0 1 1 3.08 3.08 0 0 0 2.65 0zm7.24-.48v-5h-1.2a.29.29 0 0 1-.22-.09.27.27 0 0 1-.1-.22.34.34 0 0 1 .15-.27l2.29-2.13a.46.46 0 0 1 .29-.14.28.28 0 0 1 .22.1.29.29 0 0 1 .09.22V70h1.9a.68.68 0 0 1 .47.17.58.58 0 0 1 .19.45.58.58 0 0 1-.19.44.61.61 0 0 1-.47.19h-1.9v4.83c0 .42.11.68.32.79a1.61 1.61 0 0 0 .78.17 2.27 2.27 0 0 0 .67-.1h.33a.6.6 0 0 1 .42.16.52.52 0 0 1 .19.41.6.6 0 0 1-.39.56 3.43 3.43 0 0 1-1.39.29c-1.64-.01-2.45-.71-2.45-2.12zm7.46 4.22a.48.48 0 0 1-.14-.34.42.42 0 0 1 .25-.39 1.89 1.89 0 0 0 .64-.57 1.58 1.58 0 0 0 .22-.92h-.07a.9.9 0 0 1-.66-.27.81.81 0 0 1-.28-.63v-.1a.84.84 0 0 1 .28-.63.93.93 0 0 1 .66-.26h.17a.93.93 0 0 1 .66.26.84.84 0 0 1 .28.63v1A2.57 2.57 0 0 1 84 80.53a.57.57 0 0 1-.28.08.47.47 0 0 1-.35-.15zm13.75-3.33v.42a.67.67 0 0 1-.22.51.79.79 0 0 1-.55.21.76.76 0 0 1-.54-.21.7.7 0 0 1-.22-.51V67.16a.7.7 0 0 1 .22-.51.73.73 0 0 1 .54-.22.75.75 0 0 1 .55.21.67.67 0 0 1 .22.52v3.93a4 4 0 0 1 2.88-1.22 4.15 4.15 0 0 1 2 .5 3.9 3.9 0 0 1 1.51 1.48 4.69 4.69 0 0 1 0 4.52 3.9 3.9 0 0 1-1.51 1.48 4.15 4.15 0 0 1-2 .5 4 4 0 0 1-2.88-1.22zm4.66-.89a3.4 3.4 0 0 0 0-4.26 2.72 2.72 0 0 0-2-.75 3.32 3.32 0 0 0-1.46.33 4.29 4.29 0 0 0-1.2.87v3.36a4.29 4.29 0 0 0 1.2.87 3.32 3.32 0 0 0 1.46.33 2.72 2.72 0 0 0 2-.75zm6.31 1.82a.7.7 0 0 1-.22-.51v-6.86a.75.75 0 0 1 .22-.53.76.76 0 0 1 .54-.21.79.79 0 0 1 .55.21.71.71 0 0 1 .22.53v.68a3.37 3.37 0 0 1 2.64-1.5h.09a.72.72 0 0 1 .73.72.66.66 0 0 1-.21.5.86.86 0 0 1-.56.19H112a3 3 0 0 0-1.48.37 3.39 3.39 0 0 0-1.13 1v4.86a.67.67 0 0 1-.22.51.79.79 0 0 1-.55.21.76.76 0 0 1-.53-.17zm8.71 0a2.26 2.26 0 0 1-1-.84 2.3 2.3 0 0 1 .61-3.16 4.9 4.9 0 0 1 2.88-.7h2v-.13a1.91 1.91 0 0 0-.54-1.52 2.62 2.62 0 0 0-1.71-.47 6.24 6.24 0 0 0-1.13.1 10.71 10.71 0 0 0-1.1.29h-.22a.64.64 0 0 1-.44-.17.63.63 0 0 1 .25-1 7.59 7.59 0 0 1 2.91-.58 4 4 0 0 1 2 .45 2.84 2.84 0 0 1 1.17 1.16 3.25 3.25 0 0 1 .38 1.54v4.53a.68.68 0 0 1-.23.51.8.8 0 0 1-1.08 0 .67.67 0 0 1-.22-.51v-.42a4.34 4.34 0 0 1-3.16 1.22 3.3 3.3 0 0 1-1.37-.3zm3.37-1.33a3.94 3.94 0 0 0 1.16-.86v-1.34h-1.83c-1.69 0-2.54.42-2.54 1.26a1.17 1.17 0 0 0 .42.93 2.11 2.11 0 0 0 1.36.35 3.27 3.27 0 0 0 1.43-.34zm7.06-8.61a.74.74 0 0 1-.25-.57v-.06a.76.76 0 0 1 .25-.58.85.85 0 0 1 .6-.24h.1a.85.85 0 0 1 .61.24.76.76 0 0 1 .25.58v.06a.74.74 0 0 1-.25.57.86.86 0 0 1-.61.25h-.1a.86.86 0 0 1-.6-.25zm.1 9.94a.67.67 0 0 1-.22-.51v-6.86a.71.71 0 0 1 .22-.53.73.73 0 0 1 .54-.21.75.75 0 0 1 .55.21.68.68 0 0 1 .22.53v6.86a.68.68 0 0 1-.23.51.76.76 0 0 1-.54.21.73.73 0 0 1-.54-.21zm5.86 0a.7.7 0 0 1-.22-.51v-6.86a.75.75 0 0 1 .22-.53.76.76 0 0 1 .54-.21.81.81 0 0 1 .55.21.71.71 0 0 1 .22.53v.65a5.71 5.71 0 0 1 1.38-1.07 3.59 3.59 0 0 1 1.75-.4 3.07 3.07 0 0 1 1.6.41 2.79 2.79 0 0 1 1 1.14 3.51 3.51 0 0 1 .36 1.59v4.54a.67.67 0 0 1-.22.51.79.79 0 0 1-.55.21.76.76 0 0 1-.54-.21.69.69 0 0 1-.21-.51v-4.39c0-1.3-.62-2-1.85-2a2.79 2.79 0 0 0-1.51.42 5.39 5.39 0 0 0-1.25 1.12v4.8a.67.67 0 0 1-.22.51.81.81 0 0 1-.55.21.76.76 0 0 1-.5-.16zm19.39-.18a3.07 3.07 0 0 1-1.35-1.23 3.12 3.12 0 0 1-.43-1.6 3 3 0 0 1 .59-1.86A4.93 4.93 0 0 1 152.7 72a4.92 4.92 0 0 1-.77-1.1 2.89 2.89 0 0 1 .12-2.63 2.73 2.73 0 0 1 1.09-1 3.55 3.55 0 0 1 1.67-.38 4.16 4.16 0 0 1 2.24.71.5.5 0 0 1 .21.2.49.49 0 0 1 .09.28.54.54 0 0 1-.17.39.57.57 0 0 1-.42.17.75.75 0 0 1-.3-.08 3.43 3.43 0 0 0-1.58-.42 1.9 1.9 0 0 0-1.32.44 1.36 1.36 0 0 0-.48 1 2.1 2.1 0 0 0 .16.82 2.88 2.88 0 0 0 .48.69c.21.22.56.54 1 1l3.51 3.15a6.15 6.15 0 0 0 .56-1 .61.61 0 0 1 .26-.29.68.68 0 0 1 .39-.11.76.76 0 0 1 .56.16.64.64 0 0 1 .11.79 7.65 7.65 0 0 1-.8 1.31l1.12 1a1.07 1.07 0 0 1 .21.22.62.62 0 0 1 .06.29.63.63 0 0 1-.18.46.66.66 0 0 1-.51.2.77.77 0 0 1-.52-.2l-1.12-1a5.76 5.76 0 0 1-1.6.91 5 5 0 0 1-1.85.34 5.14 5.14 0 0 1-2.34-.44zm4.79-1.66l-3.75-3.34a3.24 3.24 0 0 0-1 .91 2.17 2.17 0 0 0-.41 1.31 1.78 1.78 0 0 0 .73 1.45 2.86 2.86 0 0 0 1.81.57 4.14 4.14 0 0 0 2.62-.9zm15.16 1.63a3.9 3.9 0 0 1-1.53-1.48 4.69 4.69 0 0 1 0-4.52 3.9 3.9 0 0 1 1.51-1.48 4.15 4.15 0 0 1 2-.5 4 4 0 0 1 2.88 1.22v-3.93a.67.67 0 0 1 .22-.52.77.77 0 0 1 .55-.21.73.73 0 0 1 .54.22.69.69 0 0 1 .21.51v10.39a.69.69 0 0 1-.21.51.81.81 0 0 1-1.09 0 .67.67 0 0 1-.22-.51v-.42a4 4 0 0 1-2.88 1.22 4.15 4.15 0 0 1-1.98-.5zm3.64-1.19a4.2 4.2 0 0 0 1.21-.87v-3.36a4.2 4.2 0 0 0-1.21-.87 3.25 3.25 0 0 0-1.45-.33 2.71 2.71 0 0 0-2 .75 3.4 3.4 0 0 0 0 4.26 2.71 2.71 0 0 0 2 .75 3.25 3.25 0 0 0 1.45-.33zm7.19-8.54a.75.75 0 0 1-.26-.57v-.06a.77.77 0 0 1 .26-.58.83.83 0 0 1 .6-.24h.1a.85.85 0 0 1 .61.24.79.79 0 0 1 .25.58v.06a.77.77 0 0 1-.25.57.86.86 0 0 1-.61.25H184a.84.84 0 0 1-.64-.25zm.1 9.94a.67.67 0 0 1-.22-.51v-6.86a.71.71 0 0 1 .22-.53.72.72 0 0 1 .54-.16.78.78 0 0 1 .56.21.72.72 0 0 1 .22.53v6.86a.68.68 0 0 1-.23.51.77.77 0 0 1-.55.21.72.72 0 0 1-.54-.26zm6.54 0a.67.67 0 0 1-.22-.51v-6.27h-1a.6.6 0 0 1-.46-.19.6.6 0 0 1 0-.89.67.67 0 0 1 .46-.17h1v-.93a3.07 3.07 0 0 1 .36-1.57 2.2 2.2 0 0 1 .94-.9 2.73 2.73 0 0 1 1.22-.28 3.39 3.39 0 0 1 1.46.32.7.7 0 0 1 .28.23.57.57 0 0 1 .11.33.55.55 0 0 1-.19.42.57.57 0 0 1-.43.19 1.74 1.74 0 0 1-.39 0l-.45-.05a1.5 1.5 0 0 0-1 .31 1.42 1.42 0 0 0-.34 1.1v.8h2.1a.68.68 0 0 1 .47.17.61.61 0 0 1 .18.45.6.6 0 0 1-.18.44.61.61 0 0 1-.47.19h-2.1v6.27a.68.68 0 0 1-.23.51.76.76 0 0 1-.54.21.73.73 0 0 1-.58-.18zm7.89 0a.67.67 0 0 1-.22-.51v-6.27h-1a.6.6 0 0 1-.46-.19.6.6 0 0 1 0-.89.67.67 0 0 1 .46-.17h1v-.93a3.07 3.07 0 0 1 .36-1.57 2.2 2.2 0 0 1 .94-.9 2.73 2.73 0 0 1 1.22-.28 3.42 3.42 0 0 1 1.46.32.77.77 0 0 1 .28.23.57.57 0 0 1 .11.33.59.59 0 0 1-.19.42.58.58 0 0 1-.44.19 1.73 1.73 0 0 1-.38 0l-.46-.05a1.49 1.49 0 0 0-1 .31 1.42 1.42 0 0 0-.34 1.1v.8h2.1a.7.7 0 0 1 .47.17.61.61 0 0 1 .18.45.6.6 0 0 1-.18.44.63.63 0 0 1-.47.19h-2.1v6.27a.68.68 0 0 1-.23.51.77.77 0 0 1-.55.21.72.72 0 0 1-.56-.18zm7.38-.82a4.14 4.14 0 0 1-1.15-3.13 5 5 0 0 1 .44-2.1 3.65 3.65 0 0 1 1.34-1.55 4.51 4.51 0 0 1 4.39 0 3.65 3.65 0 0 1 1.37 1.47 4.31 4.31 0 0 1 .47 2 .68.68 0 0 1-.21.51.75.75 0 0 1-.56.21h-5.69a2.61 2.61 0 0 0 .87 1.75 3.14 3.14 0 0 0 2.07.62 5 5 0 0 0 1.23-.13 4.88 4.88 0 0 0 1-.37.75.75 0 0 1 .31-.06.71.71 0 0 1 .47.18.56.56 0 0 1 .2.44.7.7 0 0 1-.44.6 5.57 5.57 0 0 1-2.94.7 4.42 4.42 0 0 1-3.17-1.14zm5.35-3.8a2.41 2.41 0 0 0-.43-1.32 2.22 2.22 0 0 0-.93-.77 2.66 2.66 0 0 0-2.25 0 2.14 2.14 0 0 0-.92.77 2.49 2.49 0 0 0-.42 1.32zm5.43 4.62a.67.67 0 0 1-.22-.51v-6.86a.71.71 0 0 1 .22-.53.73.73 0 0 1 .54-.21.76.76 0 0 1 .54.21.72.72 0 0 1 .23.53v.68a3.34 3.34 0 0 1 2.64-1.5h.08a.72.72 0 0 1 .53.21.69.69 0 0 1 .21.51.63.63 0 0 1-.22.5.83.83 0 0 1-.55.19H220a3 3 0 0 0-1.48.37 3.36 3.36 0 0 0-1.12 1v4.86a.68.68 0 0 1-.23.51.76.76 0 0 1-.54.21.73.73 0 0 1-.58-.17zm8.27-.82a4.14 4.14 0 0 1-1.15-3.13 5 5 0 0 1 .44-2.1 3.65 3.65 0 0 1 1.39-1.55 4.51 4.51 0 0 1 4.39 0 3.65 3.65 0 0 1 1.37 1.47 4.31 4.31 0 0 1 .47 2 .68.68 0 0 1-.21.51.75.75 0 0 1-.56.21h-5.69a2.61 2.61 0 0 0 .87 1.75 3.14 3.14 0 0 0 2.07.62 5 5 0 0 0 1.23-.13 4.88 4.88 0 0 0 1-.37.75.75 0 0 1 .31-.06.69.69 0 0 1 .47.18.56.56 0 0 1 .2.44.7.7 0 0 1-.44.6 6 6 0 0 1-1.29.52 6.28 6.28 0 0 1-1.65.18 4.43 4.43 0 0 1-3.22-1.14zm5.35-3.8a2.41 2.41 0 0 0-.43-1.32 2.22 2.22 0 0 0-.93-.77 2.64 2.64 0 0 0-1.12-.25 2.69 2.69 0 0 0-1.13.25 2.14 2.14 0 0 0-.92.77 2.49 2.49 0 0 0-.42 1.32zm5.43 4.62a.67.67 0 0 1-.22-.51v-6.86a.71.71 0 0 1 .22-.53.75.75 0 0 1 .54-.21.76.76 0 0 1 .54.21.72.72 0 0 1 .23.53v.65a5.52 5.52 0 0 1 1.38-1.07 3.55 3.55 0 0 1 1.74-.4 3.08 3.08 0 0 1 1.61.41 2.79 2.79 0 0 1 1 1.14 3.51 3.51 0 0 1 .36 1.59v4.54a.64.64 0 0 1-.23.51.8.8 0 0 1-1.08 0 .7.7 0 0 1-.22-.51v-4.39c0-1.3-.61-2-1.84-2a2.74 2.74 0 0 0-1.51.42 5.39 5.39 0 0 0-1.25 1.12v4.8a.68.68 0 0 1-.23.51.76.76 0 0 1-.54.21.75.75 0 0 1-.5-.16zm13.42-.22a4 4 0 0 1-1.63-1.47 4.43 4.43 0 0 1 0-4.52 4 4 0 0 1 1.63-1.47 5 5 0 0 1 2.24-.51 4.66 4.66 0 0 1 1.53.22 5.54 5.54 0 0 1 1.21.55.63.63 0 0 1 .33.56.67.67 0 0 1-.64.64.76.76 0 0 1-.37-.1 6.4 6.4 0 0 0-.95-.39 3.4 3.4 0 0 0-1-.12 3.14 3.14 0 0 0-2.27.79 3.07 3.07 0 0 0 0 4.18 3.14 3.14 0 0 0 2.27.79 3.4 3.4 0 0 0 1-.12 6.4 6.4 0 0 0 .95-.39.76.76 0 0 1 .37-.1.62.62 0 0 1 .45.2.61.61 0 0 1 .19.44.63.63 0 0 1-.33.56 5.54 5.54 0 0 1-1.21.55 4.66 4.66 0 0 1-1.53.22 5 5 0 0 1-2.24-.51zm9.48-.6a4.14 4.14 0 0 1-1.15-3.13 5 5 0 0 1 .43-2.1 3.67 3.67 0 0 1 1.35-1.55 4.49 4.49 0 0 1 4.38 0 3.61 3.61 0 0 1 1.38 1.47 4.44 4.44 0 0 1 .47 2 .68.68 0 0 1-.21.51.76.76 0 0 1-.56.21h-5.7a2.58 2.58 0 0 0 .88 1.75 3.13 3.13 0 0 0 2.06.62 5.08 5.08 0 0 0 1.24-.13 4.88 4.88 0 0 0 1-.37.73.73 0 0 1 .3-.06.67.67 0 0 1 .47.18.54.54 0 0 1 .21.44.7.7 0 0 1-.44.6 5.57 5.57 0 0 1-2.94.7 4.42 4.42 0 0 1-3.17-1.14zm5.35-3.8a2.5 2.5 0 0 0-.43-1.32 2.22 2.22 0 0 0-.93-.77 2.69 2.69 0 0 0-1.13-.25 2.64 2.64 0 0 0-1.12.25 2.22 2.22 0 0 0-.93.77 2.68 2.68 0 0 0-.42 1.32zM57.31 5.4a29.37 29.37 0 0 1-.86 27.27c-2.23 3.85-3.6 4.92-6.73 5.17a25.13 25.13 0 0 1-9.64-1.61c-2.69-1.16-3.81-3.15-4.56-8.14C33.66 15.87 40.25 1.52 48.27.35c3.82-.56 7.15 1.29 9.04 5.05z" transform="translate(-.25 -.25)"/><path d="M53.4 43.34c1.13 1.49.38 5.74-1.54 8.65-2.52 3.81-6.42 5.52-10.51 4.6-5.77-1.27-9.3-9.1-6.67-14.74a2.17 2.17 0 0 1 1.66-1.39c.89-.25 2.75-.05 5.53.56a27.41 27.41 0 0 0 4.22.68c5.38.6 6.75.9 7.31 1.64z" transform="translate(-.25 -.25)" fill="#ff8816"/><path class="cls-1" d="M28.33 62.48c1.29 6.52-2.23 12.65-7.87 13.61C15 77 9.26 72 8.7 65.79c-.22-2.28.22-3.14 2-3.84a19.81 19.81 0 0 1 4.72-1 45.77 45.77 0 0 0 5.46-1.24 23.44 23.44 0 0 1 2.92-.69l.63-.1c2.05-.33 3.36.84 3.9 3.56zm-2.57-22.33c1 8.08-.63 13.35-4.89 15.37-6.61 3.15-11.52 2.78-14.41-1.08a31.46 31.46 0 0 1-6.15-20c.58-7.77 4.55-13.93 9.38-14.5 6.95-.85 14.6 8.77 16.07 20.21zM93 51.7a1.71 1.71 0 0 1-.52-1.28V25.94a1.8 1.8 0 0 1 .52-1.3 1.69 1.69 0 0 1 1.28-.54h15.52a1.71 1.71 0 0 1 1.72 1.72A1.61 1.61 0 0 1 111 27a1.71 1.71 0 0 1-1.22.48h-13.7v8.84h12.32a1.71 1.71 0 0 1 1.72 1.72 1.61 1.61 0 0 1-.5 1.2 1.71 1.71 0 0 1-1.22.48H96.08v10.7a1.69 1.69 0 0 1-.54 1.28 1.8 1.8 0 0 1-1.3.52A1.71 1.71 0 0 1 93 51.7zm29.38 0a5.64 5.64 0 0 1-2.38-2.1 5.76 5.76 0 0 1-.88-3.18 5.62 5.62 0 0 1 2.34-4.72c1.56-1.17 3.84-1.76 6.86-1.76h4.84v-.32a4.9 4.9 0 0 0-1.3-3.8 6 6 0 0 0-4.06-1.16 13.54 13.54 0 0 0-2.7.24 22.48 22.48 0 0 0-2.62.72 2 2 0 0 1-.52.08 1.39 1.39 0 0 1-1-.44 1.43 1.43 0 0 1-.44-1.08 1.54 1.54 0 0 1 1-1.52 17.56 17.56 0 0 1 6.92-1.44 9.11 9.11 0 0 1 4.66 1.12 7.14 7.14 0 0 1 2.8 2.9 8.46 8.46 0 0 1 .9 3.86v11.32a1.69 1.69 0 0 1-.54 1.28 1.8 1.8 0 0 1-1.3.52 1.78 1.78 0 0 1-1.8-1.8v-1a10 10 0 0 1-7.52 3 7.41 7.41 0 0 1-3.26-.72zm8-3.34a9.37 9.37 0 0 0 2.76-2.14v-3.36h-4.34c-4 0-6 1.06-6 3.16a2.94 2.94 0 0 0 1 2.32 4.82 4.82 0 0 0 3.26.88 7.18 7.18 0 0 0 3.34-.86zM151 49.38v1a1.69 1.69 0 0 1-.54 1.28 1.77 1.77 0 0 1-1.3.52 1.78 1.78 0 0 1-1.8-1.8v-26a1.85 1.85 0 0 1 .52-1.3 1.72 1.72 0 0 1 1.28-.54 1.78 1.78 0 0 1 1.84 1.92v9.8a9.23 9.23 0 0 1 6.84-3 9.36 9.36 0 0 1 4.7 1.26 9.68 9.68 0 0 1 3.61 3.68 11.35 11.35 0 0 1 1.37 5.66 11.32 11.32 0 0 1-1.37 5.66 9.61 9.61 0 0 1-3.61 3.68 9.36 9.36 0 0 1-4.7 1.26 9.19 9.19 0 0 1-6.84-3.08zm11-2.24a7.37 7.37 0 0 0 1.8-5.32 7.4 7.4 0 0 0-1.8-5.32 6.29 6.29 0 0 0-4.76-1.88 7.66 7.66 0 0 0-3.46.82 10.11 10.11 0 0 0-2.78 2.18V46a9.75 9.75 0 0 0 2.86 2.18 7.53 7.53 0 0 0 3.46.82 6.25 6.25 0 0 0 4.68-1.86zm18.6 2.24v1a1.69 1.69 0 0 1-.54 1.28 1.8 1.8 0 0 1-1.3.52 1.76 1.76 0 0 1-1.8-1.8v-26a1.84 1.84 0 0 1 .51-1.3 1.73 1.73 0 0 1 1.29-.54 1.78 1.78 0 0 1 1.84 1.84v9.8a9.19 9.19 0 0 1 6.83-3 9.4 9.4 0 0 1 4.71 1.26 9.65 9.65 0 0 1 3.6 3.68 11.25 11.25 0 0 1 1.38 5.66 11.22 11.22 0 0 1-1.38 5.66 9.58 9.58 0 0 1-3.6 3.68 9.4 9.4 0 0 1-4.71 1.26 9.15 9.15 0 0 1-6.83-3zm11.08-2.24a7.37 7.37 0 0 0 1.79-5.32 7.4 7.4 0 0 0-1.79-5.32 6.32 6.32 0 0 0-4.76-1.88 7.63 7.63 0 0 0-3.46.82 10 10 0 0 0-2.86 2.18V46a9.62 9.62 0 0 0 2.86 2.18 7.5 7.5 0 0 0 3.46.82 6.28 6.28 0 0 0 4.76-1.86zm15.2-20.28a1.94 1.94 0 0 1-.61-1.44v-.16a2.07 2.07 0 0 1 2-2h.25a1.94 1.94 0 0 1 1.43.6 2 2 0 0 1 .61 1.44v.16a2 2 0 0 1-.61 1.44 1.94 1.94 0 0 1-1.43.6h-.25a1.94 1.94 0 0 1-1.39-.64zm.23 24.84a1.74 1.74 0 0 1-.51-1.28V33.26a1.84 1.84 0 0 1 .51-1.3 1.72 1.72 0 0 1 1.28-.54 1.76 1.76 0 0 1 1.84 1.84v17.16a1.66 1.66 0 0 1-.54 1.28 1.77 1.77 0 0 1-1.3.52 1.74 1.74 0 0 1-1.28-.52z" transform="translate(-.25 -.25)"/></g></g></g></svg>